<svg id="visual" viewBox="0 0 900 600" width="900" height="600" xmlns="http://www.w3.org/2000/svg" xmlns:xlink="http://www.w3.org/1999/xlink" version="1.1"><g stroke-width="1" stroke-linejoin="bevel"><path d="M479 264L576 209L497 207Z" fill="#112e42" stroke="#112e42"></path><path d="M479 264L626 316L576 209Z" fill="#0c2435" stroke="#0c2435"></path><path d="M626 316L661 226L576 209Z" fill="#15384f" stroke="#15384f"></path><path d="M479 264L610 360L626 316Z" fill="#1d4e6b" stroke="#1d4e6b"></path><path d="M626 316L719 262L661 226Z" fill="#19435d" stroke="#19435d"></path><path d="M576 209L502 105L497 207Z" fill="#19435d" stroke="#19435d"></path><path d="M366 168L364 301L479 264Z" fill="#297ea6" stroke="#297ea6"></path><path d="M601 107L502 105L576 209Z" fill="#15384f" stroke="#15384f"></path><path d="M661 226L601 107L576 209Z" fill="#205a7a" stroke="#205a7a"></path><path d="M479 264L480 400L610 360Z" fill="#246688" stroke="#246688"></path><path d="M366 168L479 264L497 207Z" fill="#0c2435" stroke="#0c2435"></path><path d="M479 264L422 391L480 400Z" fill="#15384f" stroke="#15384f"></path><path d="M364 301L422 391L479 264Z" fill="#297ea6" stroke="#297ea6"></path><path d="M708 371L719 262L626 316Z" fill="#0c2435" stroke="#0c2435"></path><path d="M661 226L663 93L601 107Z" fill="#246688" stroke="#246688"></path><path d="M502 105L366 168L497 207Z" fill="#205a7a" stroke="#205a7a"></path><path d="M528 0L437 74L502 105Z" fill="#277297" stroke="#277297"></path><path d="M502 105L437 74L366 168Z" fill="#081a28" stroke="#081a28"></path><path d="M781 233L663 93L661 226Z" fill="#277297" stroke="#277297"></path><path d="M563 0L528 0L502 105Z" fill="#112e42" stroke="#112e42"></path><path d="M673 492L708 371L610 360Z" fill="#297ea6" stroke="#297ea6"></path><path d="M610 360L708 371L626 316Z" fill="#0c2435" stroke="#0c2435"></path><path d="M366 168L309 275L364 301Z" fill="#0c2435" stroke="#0c2435"></path><path d="M275 424L378 476L422 391Z" fill="#19435d" stroke="#19435d"></path><path d="M708 371L765 308L719 262Z" fill="#277297" stroke="#277297"></path><path d="M719 262L781 233L661 226Z" fill="#1d4e6b" stroke="#1d4e6b"></path><path d="M478 509L565 488L480 400Z" fill="#297ea6" stroke="#297ea6"></path><path d="M480 400L565 488L610 360Z" fill="#297ea6" stroke="#297ea6"></path><path d="M437 74L331 122L366 168Z" fill="#00101c" stroke="#00101c"></path><path d="M366 168L264 171L309 275Z" fill="#1d4e6b" stroke="#1d4e6b"></path><path d="M765 308L781 233L719 262Z" fill="#19435d" stroke="#19435d"></path><path d="M563 0L502 105L601 107Z" fill="#19435d" stroke="#19435d"></path><path d="M437 74L308 0L331 122Z" fill="#081a28" stroke="#081a28"></path><path d="M663 93L563 0L601 107Z" fill="#277297" stroke="#277297"></path><path d="M378 476L478 509L422 391Z" fill="#15384f" stroke="#15384f"></path><path d="M422 391L478 509L480 400Z" fill="#112e42" stroke="#112e42"></path><path d="M673 492L775 376L708 371Z" fill="#112e42" stroke="#112e42"></path><path d="M708 371L775 376L765 308Z" fill="#297ea6" stroke="#297ea6"></path><path d="M765 308L900 273L781 233Z" fill="#00101c" stroke="#00101c"></path><path d="M528 0L430 0L437 74Z" fill="#00101c" stroke="#00101c"></path><path d="M275 424L422 391L364 301Z" fill="#15384f" stroke="#15384f"></path><path d="M565 488L673 492L610 360Z" fill="#205a7a" stroke="#205a7a"></path><path d="M615 600L673 492L565 488Z" fill="#297ea6" stroke="#297ea6"></path><path d="M218 93L264 171L331 122Z" fill="#19435d" stroke="#19435d"></path><path d="M331 122L264 171L366 168Z" fill="#0c2435" stroke="#0c2435"></path><path d="M309 275L275 424L364 301Z" fill="#081a28" stroke="#081a28"></path><path d="M790 72L690 0L663 93Z" fill="#297ea6" stroke="#297ea6"></path><path d="M663 93L690 0L563 0Z" fill="#1d4e6b" stroke="#1d4e6b"></path><path d="M781 233L790 72L663 93Z" fill="#00101c" stroke="#00101c"></path><path d="M900 162L790 72L781 233Z" fill="#205a7a" stroke="#205a7a"></path><path d="M201 295L275 424L309 275Z" fill="#112e42" stroke="#112e42"></path><path d="M407 600L477 600L478 509Z" fill="#15384f" stroke="#15384f"></path><path d="M275 424L310 476L378 476Z" fill="#081a28" stroke="#081a28"></path><path d="M218 93L205 211L264 171Z" fill="#205a7a" stroke="#205a7a"></path><path d="M264 171L205 211L309 275Z" fill="#00101c" stroke="#00101c"></path><path d="M205 211L201 295L309 275Z" fill="#0c2435" stroke="#0c2435"></path><path d="M430 0L308 0L437 74Z" fill="#081a28" stroke="#081a28"></path><path d="M790 72L765 0L690 0Z" fill="#00101c" stroke="#00101c"></path><path d="M308 0L218 93L331 122Z" fill="#246688" stroke="#246688"></path><path d="M407 600L478 509L378 476Z" fill="#15384f" stroke="#15384f"></path><path d="M478 509L477 600L565 488Z" fill="#205a7a" stroke="#205a7a"></path><path d="M477 600L615 600L565 488Z" fill="#15384f" stroke="#15384f"></path><path d="M673 492L827 476L775 376Z" fill="#15384f" stroke="#15384f"></path><path d="M900 391L900 273L775 376Z" fill="#112e42" stroke="#112e42"></path><path d="M775 376L900 273L765 308Z" fill="#0c2435" stroke="#0c2435"></path><path d="M790 72L900 0L765 0Z" fill="#1d4e6b" stroke="#1d4e6b"></path><path d="M765 600L827 476L673 492Z" fill="#205a7a" stroke="#205a7a"></path><path d="M310 476L407 600L378 476Z" fill="#15384f" stroke="#15384f"></path><path d="M900 273L900 162L781 233Z" fill="#00101c" stroke="#00101c"></path><path d="M900 162L900 137L790 72Z" fill="#205a7a" stroke="#205a7a"></path><path d="M111 435L178 394L77 318Z" fill="#1d4e6b" stroke="#1d4e6b"></path><path d="M201 295L178 394L275 424Z" fill="#112e42" stroke="#112e42"></path><path d="M275 424L178 477L310 476Z" fill="#081a28" stroke="#081a28"></path><path d="M310 476L260 600L407 600Z" fill="#112e42" stroke="#112e42"></path><path d="M178 394L201 295L77 318Z" fill="#1d4e6b" stroke="#1d4e6b"></path><path d="M827 476L900 391L775 376Z" fill="#112e42" stroke="#112e42"></path><path d="M615 600L735 600L673 492Z" fill="#277297" stroke="#277297"></path><path d="M827 476L900 476L900 391Z" fill="#0c2435" stroke="#0c2435"></path><path d="M735 600L765 600L673 492Z" fill="#277297" stroke="#277297"></path><path d="M178 394L178 477L275 424Z" fill="#112e42" stroke="#112e42"></path><path d="M900 600L900 476L827 476Z" fill="#19435d" stroke="#19435d"></path><path d="M900 137L900 0L790 72Z" fill="#081a28" stroke="#081a28"></path><path d="M233 600L260 600L310 476Z" fill="#1d4e6b" stroke="#1d4e6b"></path><path d="M308 0L160 0L218 93Z" fill="#277297" stroke="#277297"></path><path d="M218 93L77 160L205 211Z" fill="#15384f" stroke="#15384f"></path><path d="M178 394L111 435L178 477Z" fill="#19435d" stroke="#19435d"></path><path d="M178 477L233 600L310 476Z" fill="#112e42" stroke="#112e42"></path><path d="M77 318L201 295L205 211Z" fill="#0c2435" stroke="#0c2435"></path><path d="M178 477L107 600L233 600Z" fill="#15384f" stroke="#15384f"></path><path d="M77 160L77 318L205 211Z" fill="#1d4e6b" stroke="#1d4e6b"></path><path d="M78 67L77 160L218 93Z" fill="#246688" stroke="#246688"></path><path d="M160 0L78 67L218 93Z" fill="#0c2435" stroke="#0c2435"></path><path d="M765 600L900 600L827 476Z" fill="#0c2435" stroke="#0c2435"></path><path d="M0 477L94 513L111 435Z" fill="#15384f" stroke="#15384f"></path><path d="M111 435L94 513L178 477Z" fill="#1d4e6b" stroke="#1d4e6b"></path><path d="M160 0L68 0L78 67Z" fill="#0c2435" stroke="#0c2435"></path><path d="M0 206L77 318L77 160Z" fill="#0c2435" stroke="#0c2435"></path><path d="M0 206L0 282L77 318Z" fill="#205a7a" stroke="#205a7a"></path><path d="M0 206L77 160L0 100Z" fill="#00101c" stroke="#00101c"></path><path d="M77 318L0 401L111 435Z" fill="#205a7a" stroke="#205a7a"></path><path d="M0 100L77 160L78 67Z" fill="#0c2435" stroke="#0c2435"></path><path d="M94 513L107 600L178 477Z" fill="#1d4e6b" stroke="#1d4e6b"></path><path d="M0 600L107 600L94 513Z" fill="#297ea6" stroke="#297ea6"></path><path d="M0 0L0 100L78 67Z" fill="#246688" stroke="#246688"></path><path d="M0 282L0 401L77 318Z" fill="#112e42" stroke="#112e42"></path><path d="M0 401L0 477L111 435Z" fill="#19435d" stroke="#19435d"></path><path d="M68 0L0 0L78 67Z" fill="#1d4e6b" stroke="#1d4e6b"></path><path d="M0 477L0 600L94 513Z" fill="#277297" stroke="#277297"></path></g></svg>